<svg width="21" height="21" viewBox="0 0 21 21" fill="none" xmlns="http://www.w3.org/2000/svg">
<path id="Vector" d="M16.0417 20.8335C11.7888 20.8279 7.71179 19.1361 4.70458 16.1289C1.69738 13.1217 0.00551241 9.04461 0 4.79179C0 3.52096 0.504835 2.30218 1.40345 1.40357C2.30206 0.504954 3.52084 0.000119057 4.79167 0.000119057C5.06077 -0.00193074 5.32943 0.0224923 5.59375 0.0730357C5.84928 0.110849 6.10049 0.17365 6.34375 0.260536C6.51484 0.320566 6.6673 0.424216 6.78605 0.561236C6.9048 0.698256 6.98573 0.863899 7.02083 1.04179L8.44792 7.29179C8.48638 7.46144 8.48175 7.63802 8.43444 7.80541C8.38713 7.97281 8.29866 8.1257 8.17708 8.25012C8.04167 8.39595 8.03125 8.40637 6.75 9.07304C7.77604 11.3239 9.57625 13.1315 11.8229 14.1668C12.5 12.8751 12.5104 12.8647 12.6563 12.7293C12.7807 12.6077 12.9336 12.5192 13.101 12.4719C13.2684 12.4246 13.4449 12.42 13.6146 12.4585L19.8646 13.8855C20.0368 13.9255 20.196 14.0086 20.3272 14.1271C20.4584 14.2455 20.5573 14.3954 20.6146 14.5626C20.7025 14.8099 20.7687 15.0643 20.8125 15.323C20.8544 15.5848 20.8753 15.8496 20.875 16.1147C20.8558 17.3801 20.3368 18.5865 19.4312 19.4706C18.5257 20.3547 17.3072 20.8446 16.0417 20.8335Z" fill="white"/>
</svg>
