<svg width="35" height="26" viewBox="0 0 35 26" fill="none" xmlns="http://www.w3.org/2000/svg">
<path d="M12.7885 26C12.4893 25.999 12.1935 25.9372 11.9195 25.8184C11.6455 25.6996 11.3991 25.5262 11.1957 25.3092L0.591442 14.1483C0.195042 13.7304 -0.0173087 13.1737 0.00110497 12.6009C0.0195187 12.028 0.267188 11.4858 0.689629 11.0936C1.11207 10.7015 1.67468 10.4914 2.25369 10.5096C2.8327 10.5278 3.38067 10.7728 3.77707 11.1908L12.7667 20.6678L31.1168 0.807071C31.303 0.577642 31.5347 0.3883 31.7975 0.250675C32.0604 0.113051 32.349 0.0300486 32.6454 0.00676763C32.9419 -0.0165134 33.2401 0.0204182 33.5216 0.115294C33.8031 0.210169 34.0621 0.360985 34.2825 0.558479C34.503 0.755973 34.6803 0.995975 34.8036 1.26374C34.9269 1.53151 34.9936 1.8214 34.9996 2.11559C35.0055 2.40978 34.9506 2.70207 34.8382 2.97451C34.7259 3.24694 34.5584 3.49377 34.3461 3.69983L14.4031 25.2876C14.2016 25.5086 13.9561 25.6859 13.682 25.8085C13.4079 25.9311 13.1111 25.9963 12.8103 26H12.7885Z" fill="white"/>
</svg>
